<?xml version="1.0" standalone="no"?>
<!DOCTYPE svg PUBLIC "-//W3C//DTD SVG 20010904//EN"
 "http://www.w3.org/TR/2001/REC-SVG-20010904/DTD/svg10.dtd">
<svg version="1.0" xmlns="http://www.w3.org/2000/svg"
 width="800.000000pt" height="800.000000pt" viewBox="0 0 800.000000 800.000000"
 preserveAspectRatio="xMidYMid meet">
<metadata>
Created by potrace 1.14, written by Peter Selinger 2001-2017
</metadata>
<g transform="translate(0.000000,800.000000) scale(0.100000,-0.100000)"
fill="#000000" stroke="none">
<path d="M0 4000 l0 -4000 4000 0 4000 0 0 4000 0 4000 -4000 0 -4000 0 0
-4000z m6110 3008 c0 -15 -105 -636 -150 -888 -16 -91 -47 -268 -69 -395 -22
-126 -81 -462 -131 -745 -115 -656 -154 -877 -235 -1340 -124 -710 -216 -1212
-247 -1345 -144 -621 -649 -1030 -1348 -1094 -69 -7 -441 -11 -937 -11 -791 0
-823 1 -823 18 0 30 381 715 422 759 38 41 76 43 780 43 549 0 686 3 741 15
195 41 309 154 371 368 25 86 100 456 94 462 -2 2 -223 8 -493 14 -332 7 -519
15 -580 25 -408 66 -681 310 -777 692 -19 75 -22 114 -21 254 1 174 -2 155
103 755 17 94 44 247 60 340 126 720 173 959 206 1065 75 238 187 424 353 590
163 163 331 268 532 334 142 46 238 63 426 76 231 15 254 16 1021 18 556 2
702 -1 702 -10z"/>
<path d="M4255 6193 c-62 -9 -134 -35 -191 -69 -75 -45 -97 -66 -144 -137 -71
-105 -76 -125 -195 -797 -20 -113 -47 -266 -60 -340 -101 -566 -138 -839 -125
-918 17 -104 90 -185 195 -218 48 -15 247 -24 790 -35 166 -4 192 8 214 96 5
22 40 216 76 430 97 572 130 767 186 1090 88 509 91 526 86 605 -2 46 -11 93
-24 120 -38 86 -126 149 -238 169 -55 10 -502 13 -570 4z"/>
</g>
</svg>
